# xmcd
#
# Track frame offsets: 
#        150
#        14384
#        29036
#        42157
#        56869
#        69770
#        84358
#        98436
#        111031
#        125300
#        139426
#        152127
#        165306
#        176619
#        192822
#        204058
#        217148
#        232235
#        246415
#        261005
#        275652
#        289159
#        304480
#        318566
#
# Disc length: 4425 seconds
#
# Revision: 1
# Processed by: cddbd v1.5.2PL0 Copyright (c) Steve Scherf et al.
# Submitted via: ExactAudioCopy v0.99pb4
#
DISCID=61114718
DTITLE=Frank Sinatra - 10 CD Set [CD 3)
DYEAR=2005
DGENRE=Jazz
TTITLE0=Love Me As I Am
TTITLE1=Moments In The Moonlight
TTITLE2=Yours Is My Heart Alone
TTITLE3=Too Romantic
TTITLE4=Head On My Pillow
TTITLE5=It's Allways You
TTITLE6=I'll Never Smile Again
TTITLE7=Be Careful, It's My Heart
TTITLE8=I Could Make You Care
TTITLE9=You're Lonely And I'm Lonely
TTITLE10=Where Do You Keep Your Heart?
TTITLE11=Two In Love
TTITLE12=Last Call For Love
TTITLE13=The One I Love Belongs To Somebody Else
TTITLE14=It's A Lovely Day Tomorrow
TTITLE15=Oh, What A Beautiful Mornin'
TTITLE16=Polka Dots And Moonbeams
TTITLE17=Looking For Yesterday
TTITLE18=This Is The Beginning Of The End
TTITLE19=Everything Happens To Me
TTITLE20=A Sinnner Kissed An Angel
TTITLE21=Say It
TTITLE22=The Call Of The Canyon
TTITLE23=Whispering
EXTD=
EXTT0=
EXTT1=
EXTT2=
EXTT3=
EXTT4=
EXTT5=
EXTT6=
EXTT7=
EXTT8=
EXTT9=
EXTT10=
EXTT11=
EXTT12=
EXTT13=
EXTT14=
EXTT15=
EXTT16=
EXTT17=
EXTT18=
EXTT19=
EXTT20=
EXTT21=
EXTT22=
EXTT23=
PLAYORDER=
